HIERARCHY
ROOT Hips
{
	OFFSET 0.000000 0.000000 0.000000
	CHANNELS 6 Xposition Yposition Zposition Zrotation Yrotation Xrotation 
	JOINT LHipJoint
	{
		OFFSET 0.000000 0.000000 0.000000
		CHANNELS 3 Zrotation Yrotation Xrotation
		JOINT LeftUpLeg
		{
			OFFSET 1.363060 -1.794630 0.839290
			CHANNELS 3 Zrotation Yrotation Xrotation
			JOINT LeftLeg
			{
				OFFSET 2.448110 -6.726130 0.000000
				CHANNELS 3 Zrotation Yrotation Xrotation
				JOINT LeftFoot
				{
					OFFSET 2.562200 -7.039590 0.000000
					CHANNELS 3 Zrotation Yrotation Xrotation
					JOINT LeftToeBase
					{
						OFFSET 0.157640 -0.433110 2.322550
						CHANNELS 3 Zrotation Yrotation Xrotation
						End Site
						{
							OFFSET 0.000000 0.000000 0.000000
						}
					}
				}
			}
		}
	}
	JOINT RHipJoint
	{
		OFFSET 0.000000 0.000000 0.000000
		CHANNELS 3 Zrotation Yrotation Xrotation
		JOINT RightUpLeg
		{
			OFFSET -1.305520 -1.794630 0.839290
			CHANNELS 3 Zrotation Yrotation Xrotation
			JOINT RightLeg
			{
				OFFSET -2.542530 -6.985550 0.000000
				CHANNELS 3 Zrotation Yrotation Xrotation
				JOINT RightFoot
				{
					OFFSET -2.568260 -7.056230 0.000000
					CHANNELS 3 Zrotation Yrotation Xrotation
					JOINT RightToeBase
					{
						OFFSET -0.164730 -0.452590 2.363150
						CHANNELS 3 Zrotation Yrotation Xrotation
						End Site
						{
							OFFSET 0.000000 0.000000 0.000000
						}
					}
				}
			}
		}
	}
	JOINT LowerBack
	{
		OFFSET 0.000000 0.000000 0.000000
		CHANNELS 3 Zrotation Yrotation Xrotation
		JOINT Spine
		{
			OFFSET 0.028270 2.035590 -0.193380
			CHANNELS 3 Zrotation Yrotation Xrotation
			JOINT Spine1
			{
				OFFSET 0.056720 2.048850 -0.042750
				CHANNELS 3 Zrotation Yrotation Xrotation
				JOINT Neck
				{
					OFFSET 0.000000 0.000000 0.000000
					CHANNELS 3 Zrotation Yrotation Xrotation
					JOINT Neck1
					{
						OFFSET -0.054170 1.746240 0.172020
						CHANNELS 3 Zrotation Yrotation Xrotation
						JOINT Head
						{
							OFFSET 0.104070 1.761360 -0.123970
							CHANNELS 3 Zrotation Yrotation Xrotation
							End Site
							{
								OFFSET 0.000000 0.000000 0.000000
							}
						}
					}
				}
				JOINT LeftShoulder
				{
					OFFSET 0.000000 0.000000 0.000000
					CHANNELS 3 Zrotation Yrotation Xrotation
					JOINT LeftArm
					{
						OFFSET 3.362410 1.200890 -0.311210
						CHANNELS 3 Zrotation Yrotation Xrotation
						JOINT LeftForeArm
						{
							OFFSET 4.983000 -0.000000 -0.000000
							CHANNELS 3 Zrotation Yrotation Xrotation
							JOINT LeftHand
							{
								OFFSET 3.483560 -0.000000 -0.000000
								CHANNELS 3 Zrotation Yrotation Xrotation
								JOINT LeftFingerBase
								{
									OFFSET 0.000000 0.000000 0.000000
									CHANNELS 3 Zrotation Yrotation Xrotation
									JOINT LeftHandIndex1
									{
										OFFSET 0.715260 -0.000000 -0.000000
										CHANNELS 3 Zrotation Yrotation Xrotation
										End Site
										{
											OFFSET 0.000000 0.000000 0.000000
										}
									}
								}
								JOINT LThumb
								{
									OFFSET 0.000000 0.000000 0.000000
									CHANNELS 3 Zrotation Yrotation Xrotation
									End Site
									{
										OFFSET 0.000000 0.000000 0.000000
									}
								}
							}
						}
					}
				}
				JOINT RightShoulder
				{
					OFFSET 0.000000 0.000000 0.000000
					CHANNELS 3 Zrotation Yrotation Xrotation
					JOINT RightArm
					{
						OFFSET -3.136600 1.374050 -0.404650
						CHANNELS 3 Zrotation Yrotation Xrotation
						JOINT RightForeArm
						{
							OFFSET -5.241900 -0.000000 -0.000000
							CHANNELS 3 Zrotation Yrotation Xrotation
							JOINT RightHand
							{
								OFFSET -3.444170 -0.000000 -0.000000
								CHANNELS 3 Zrotation Yrotation Xrotation
								JOINT RightFingerBase
								{
									OFFSET 0.000000 0.000000 0.000000
									CHANNELS 3 Zrotation Yrotation Xrotation
									JOINT RightHandIndex1
									{
										OFFSET -0.622530 -0.000000 -0.000000
										CHANNELS 3 Zrotation Yrotation Xrotation
										End Site
										{
											OFFSET 0.000000 0.000000 0.000000
										}
									}
								}
								JOINT RThumb
								{
									OFFSET 0.000000 0.000000 0.000000
									CHANNELS 3 Zrotation Yrotation Xrotation
									End Site
									{
										OFFSET 0.000000 0.000000 0.000000
									}
								}
							}
						}
					}
				}
			}
		}
	}
}
MOTION
Frames: 10
Frame Time: 0.008333
5.720357 16.832411 -4.805332 178.003482 35.970943 -171.815554 -7.736108 2.408616 1.542188 -23.370558 9.530781 -35.944122 -3.663525 -0.281654 12.100361 1.451319 9.295451 0.402893 1.889500 0.000000 -6.519400 12.043757 -3.388755 -1.349087 -2.343221 -16.168551 6.334875 0.623746 -1.074114 16.930680 -0.751395 -4.452359 6.882890 -1.331100 0.000000 -81.832500 -7.230203 -0.240902 -0.669012 -2.585550 0.110365 -3.203416 -7.805472 -0.003354 0.395305 9.436845 -3.352765 -7.266488 -4.802591 -0.368299 -0.040011 0.000000 0.000000 0.000000 -6.493314 10.426625 2.009162 -62.325778 1.835854 4.052750 -3.976097 -12.640311 -0.004848 2.449452 4.858951 0.106495 -0.058352 0.002243 -0.000000 0.000000 0.000000 0.000000 0.000000 0.000000 0.000000 20.493557 1.256056 1.555442 57.191229 12.167254 1.930465 3.037302 30.834171 0.015117 2.306759 6.814418 0.136725 0.068903 -0.132721 0.000000 0.000000 0.000000 0.000000 0.000000 0.000000 0.000000 
5.781707 16.855127 -4.932995 177.668700 35.572579 -172.082400 -7.647376 2.458241 1.671781 -23.341441 8.640781 -34.957932 -3.611452 -0.312942 12.140706 1.538910 9.723525 -0.057993 1.876300 -0.000000 -6.191100 12.221836 -3.357945 -1.403860 -2.977212 -16.302909 5.676676 0.408983 -1.280546 18.991836 -0.796587 -4.474361 8.744545 -1.418101 0.000000 -83.708801 -7.568683 -0.291250 -0.714706 -2.656812 0.080468 -3.211303 -7.821831 -0.033183 0.385597 9.477421 -3.581143 -7.258921 -4.804721 -0.368993 -0.038005 0.000000 0.000000 0.000000 -6.333612 10.212215 2.005139 -62.424484 1.537916 3.808054 -3.992622 -12.022600 -0.004996 2.571385 4.906514 0.112594 -0.057826 0.005299 -0.000000 0.000000 0.000000 0.000000 0.000000 0.000000 0.000000 20.564106 1.007068 1.474210 58.056927 11.658309 2.066059 3.004818 31.224460 0.015040 2.383409 6.833434 0.141928 0.066550 -0.132704 0.000000 0.000000 0.000000 0.000000 0.000000 0.000000 0.000000 
5.838239 16.878688 -5.060935 177.398138 35.199539 -172.285159 -7.577652 2.491123 1.781034 -23.324746 7.873941 -34.006269 -3.570496 -0.354454 12.112276 1.622295 10.087021 -0.625085 1.823900 0.000000 -5.899699 12.372286 -3.319081 -1.438376 -3.496161 -16.341418 4.880005 0.189497 -1.477905 21.199183 -0.873249 -4.588538 10.728286 -1.527100 0.000001 -85.117099 -7.823146 -0.328748 -0.769679 -2.710691 0.058427 -3.221146 -7.833578 -0.055219 0.376835 9.486899 -3.771885 -7.246694 -4.805260 -0.369540 -0.034443 0.000000 0.000000 0.000000 -6.220979 10.034892 2.000732 -62.532910 1.179738 3.662804 -4.004169 -11.522111 -0.005165 2.654165 4.958736 0.117294 -0.057457 0.008418 -0.000000 0.000000 0.000000 0.000000 0.000000 0.000000 0.000000 20.590992 0.798810 1.394838 58.899008 11.125117 2.125597 2.977023 31.574404 0.014968 2.479342 6.828651 0.147828 0.064178 -0.132586 0.000000 0.000000 0.000000 0.000000 0.000000 0.000000 0.000000 
5.890662 16.902560 -5.187960 177.165145 34.854999 -172.454852 -7.522211 2.514199 1.858512 -23.353494 7.280983 -33.070346 -3.545577 -0.405042 11.990138 1.692120 10.359410 -1.223188 1.742100 0.000000 -5.653500 12.506395 -3.268040 -1.451881 -3.937317 -16.291466 3.961091 -0.030700 -1.662418 23.544217 -0.980377 -4.783443 12.795532 -1.659900 -0.000000 -86.034800 -8.026259 -0.356315 -0.818690 -2.753834 0.043476 -3.229899 -7.842064 -0.070091 0.368531 9.479561 -3.966065 -7.234903 -4.804793 -0.369969 -0.030820 0.000000 0.000000 0.000000 -6.136580 9.843444 1.994520 -62.655513 0.826781 3.565568 -4.011104 -11.192189 -0.005336 2.693702 5.017861 0.120398 -0.057229 0.011241 -0.000000 0.000000 0.000000 0.000000 0.000000 0.000000 0.000000 20.601377 0.585493 1.324695 59.699078 10.642926 2.201525 2.955566 31.842079 0.014900 2.565331 6.815225 0.152827 0.062161 -0.132412 0.000000 0.000000 0.000000 0.000000 0.000000 0.000000 0.000000 
5.938883 16.926377 -5.314106 176.994631 34.542398 -172.564851 -7.489046 2.529243 1.901337 -23.411106 6.902099 -32.203579 -3.536701 -0.458874 11.808073 1.738349 10.494230 -1.808757 1.635000 -0.000000 -5.458300 12.615493 -3.208682 -1.433949 -4.251269 -16.117446 2.911608 -0.242116 -1.829170 26.014141 -1.118239 -5.092080 14.867553 -1.834700 -0.000000 -86.201000 -8.155873 -0.375052 -0.874831 -2.781671 0.033037 -3.240369 -7.848992 -0.080707 0.360008 9.452491 -4.111594 -7.218370 -4.804434 -0.370357 -0.025844 0.000000 0.000000 0.000000 -6.088116 9.693472 1.989927 -62.782213 0.427704 3.586166 -4.014102 -11.007836 -0.005516 2.687304 5.079637 0.121504 -0.057238 0.014016 -0.000000 0.000000 0.000000 0.000000 0.000000 0.000000 0.000000 20.585933 0.424367 1.258332 60.466707 10.149300 2.219001 2.938628 32.068880 0.014844 2.679409 6.774977 0.159023 0.060030 -0.132060 0.000000 0.000000 0.000000 0.000000 0.000000 0.000000 0.000000 
5.983573 16.949738 -5.438663 176.875653 34.260605 -172.626474 -7.476679 2.540816 1.906538 -23.500417 6.754039 -31.412193 -3.544827 -0.512625 11.577717 1.754220 10.469971 -2.337231 1.513100 -0.000000 -5.315900 12.703345 -3.140992 -1.384946 -4.448280 -15.824172 1.745781 -0.437113 -1.977022 28.589587 -1.280886 -5.513269 16.866884 -2.059700 -0.000000 -85.580600 -8.225268 -0.388046 -0.933365 -2.796817 0.024850 -3.251627 -7.855173 -0.089323 0.350471 9.413802 -4.226520 -7.199147 -4.804570 -0.370730 -0.020065 0.000000 0.000000 0.000000 -6.065720 9.558329 1.986802 -62.912747 0.019338 3.701594 -4.013297 -10.995491 -0.005688 2.636684 5.142280 0.120711 -0.057469 0.016559 -0.000000 0.000000 0.000000 0.000000 0.000000 0.000000 0.000000 20.558779 0.294523 1.199214 61.193096 9.680121 2.225291 2.926878 32.236670 0.014797 2.807948 6.715599 0.165417 0.057957 -0.131537 0.000000 0.000000 0.000000 0.000000 0.000000 0.000000 0.000000 
6.025044 16.972257 -5.561250 176.807458 34.005481 -172.643515 -7.484609 2.551722 1.875003 -23.613158 6.833161 -30.706603 -3.568690 -0.562604 11.322664 1.736110 10.274435 -2.784328 1.384500 -0.000000 -5.220400 12.770591 -3.066873 -1.308281 -4.532720 -15.421944 0.478413 -0.608543 -2.107685 31.250149 -1.459380 -6.042466 18.697334 -2.339700 -0.000000 -84.085300 -8.239763 -0.398270 -0.991200 -2.800346 0.016205 -3.263123 -7.861783 -0.098679 0.339377 9.368036 -4.302594 -7.176821 -4.805602 -0.371099 -0.013519 0.000000 0.000000 0.000000 -6.063615 9.445569 1.986486 -63.042398 -0.404491 3.927401 -4.009053 -11.148986 -0.005847 2.547126 5.200520 0.118021 -0.057936 0.018901 -0.000000 0.000000 0.000000 0.000000 0.000000 0.000000 0.000000 20.524932 0.203898 1.146495 61.879916 9.230886 2.216416 2.919348 32.353384 0.014758 2.955750 6.635720 0.172309 0.055845 -0.130816 0.000000 0.000000 0.000000 0.000000 0.000000 0.000000 0.000000 
6.063910 16.993689 -5.681323 176.775135 33.770501 -172.633772 -7.507892 2.564788 1.809633 -23.747357 7.113295 -30.073957 -3.606566 -0.606696 11.056557 1.684828 9.916741 -3.136711 1.257000 0.000000 -5.159800 12.822360 -2.986945 -1.212564 -4.532850 -14.937460 -0.863557 -0.753514 -2.225520 33.963221 -1.644035 -6.668275 20.277753 -2.672500 0.000000 -81.930899 -8.217928 -0.409053 -1.038933 -2.796021 0.004888 -3.273343 -7.869393 -0.110950 0.324686 9.322497 -4.355744 -7.151760 -4.807617 -0.371475 -0.006373 0.000000 0.000000 0.000000 -6.069830 9.325603 1.989287 -63.170254 -0.810615 4.236737 -4.001245 -11.481929 -0.005975 2.428085 5.249316 0.113634 -0.058585 0.020899 -0.000000 0.000000 0.000000 0.000000 0.000000 0.000000 0.000000 20.495340 0.133305 1.102945 62.524538 8.826321 2.226605 2.915879 32.406984 0.014722 3.110042 6.543104 0.179099 0.053823 -0.129931 0.000000 0.000000 0.000000 0.000000 0.000000 0.000000 0.000000 
6.100610 17.013806 -5.798646 176.773125 33.547630 -172.603163 -7.544240 2.580321 1.717683 -23.886680 7.550488 -29.513344 -3.654632 -0.642695 10.803919 1.604842 9.415795 -3.402865 1.133900 -0.000000 -5.117700 12.859504 -2.903608 -1.106266 -4.458280 -14.394207 -2.260249 -0.872537 -2.335930 36.696097 -1.826062 -7.383999 21.530960 -3.052700 -0.000000 -79.299200 -8.164279 -0.423247 -1.074080 -2.784685 -0.011725 -3.281954 -7.878201 -0.128760 0.305282 9.279766 -4.386361 -7.122874 -4.810718 -0.371867 0.001660 0.000000 0.000000 0.000000 -6.080659 9.191491 1.995982 -63.291219 -1.193514 4.626962 -3.989627 -11.987012 -0.006067 2.290799 5.282266 0.108049 -0.059376 0.022555 -0.000000 0.000000 0.000000 0.000000 0.000000 0.000000 0.000000 20.472714 0.080530 1.068376 63.128066 8.465822 2.259255 2.915800 32.401947 0.014686 3.268717 6.440355 0.185489 0.051882 -0.128880 0.000000 0.000000 0.000000 0.000000 0.000000 0.000000 0.000000 
6.135239 17.032554 -5.913246 176.801437 33.327217 -172.554651 -7.591807 2.597283 1.607967 -24.013041 8.088859 -29.016218 -3.707745 -0.669482 10.585277 1.503785 8.803490 -3.603841 1.016101 0.000000 -5.077700 12.882370 -2.819287 -0.999487 -4.319549 -13.819726 -3.692627 -0.969240 -2.444894 39.420444 -1.996923 -8.169015 22.386360 -3.461400 0.000000 -76.232600 -8.080857 -0.443309 -1.093809 -2.766818 -0.036020 -3.288152 -7.888887 -0.154407 0.282049 9.241462 -4.386591 -7.090200 -4.814962 -0.372249 0.010435 0.000000 0.000000 0.000000 -6.095862 9.059768 2.007273 -63.398548 -1.580193 5.117566 -3.974190 -12.633955 -0.006124 2.148791 5.290714 0.101765 -0.060286 0.024007 -0.000000 0.000000 0.000000 0.000000 0.000000 0.000000 0.000000 20.457545 0.052839 1.040103 63.693807 8.135507 2.298632 2.917741 32.354071 0.014644 3.435572 6.327094 0.191777 0.049919 -0.127642 0.000000 0.000000 0.000000 0.000000 0.000000 0.000000 0.000000 
